<?xml version="1.0" encoding="UTF-8" standalone="no"?>
<!-- Created with Inkscape (http://www.inkscape.org/) -->

<svg
   xmlns:dc="http://purl.org/dc/elements/1.1/"
   xmlns:cc="http://creativecommons.org/ns#"
   xmlns:rdf="http://www.w3.org/1999/02/22-rdf-syntax-ns#"
   xmlns:svg="http://www.w3.org/2000/svg"
   xmlns="http://www.w3.org/2000/svg"
   xmlns:sodipodi="http://sodipodi.sourceforge.net/DTD/sodipodi-0.dtd"
   xmlns:inkscape="http://www.inkscape.org/namespaces/inkscape"
   id="svg3349"
   version="1.1"
   inkscape:version="0.91 r13725"
   width="105"
   height="50"
   viewBox="0 0 105 50"
   sodipodi:docname="logo.svg">
  <metadata
     id="metadata3355">
    <rdf:RDF>
      <cc:Work
         rdf:about="">
        <dc:format>image/svg+xml</dc:format>
        <dc:type
           rdf:resource="http://purl.org/dc/dcmitype/StillImage" />
        <dc:title></dc:title>
      </cc:Work>
    </rdf:RDF>
  </metadata>
  <defs
     id="defs3353" />
  <sodipodi:namedview
     pagecolor="#ffffff"
     bordercolor="#666666"
     borderopacity="1"
     objecttolerance="10"
     gridtolerance="10"
     guidetolerance="10"
     inkscape:pageopacity="0"
     inkscape:pageshadow="2"
     inkscape:window-width="1366"
     inkscape:window-height="705"
     id="namedview3351"
     showgrid="false"
     inkscape:zoom="8.2191781"
     inkscape:cx="64.79601"
     inkscape:cy="25.3361"
     inkscape:window-x="-8"
     inkscape:window-y="-8"
     inkscape:window-maximized="1"
     inkscape:current-layer="svg3349" />
  <path
     style="fill:#ffffff"
     d="M 0.72470731,48.752963 C 0.7283698,48.63088 1.1901421,47.333005 1.7507613,45.868682 2.7380333,43.28995 2.787091,43.20459 3.3115969,43.152876 l 0.5415254,-0.05335 1.0332354,2.715807 c 0.5682786,1.493696 1.0694984,2.815646 1.1138218,2.93768 0.055804,0.153641 -0.134937,0.221861 -0.6202835,0.221861 -0.6639025,0 -0.7120935,-0.03748 -0.9135869,-0.709973 l -0.2127147,-0.709973 -0.9409977,0 -0.941,0 -0.2127136,0.709973 c -0.1948992,0.650518 -0.2641458,0.709972 -0.8268184,0.709972 -0.37655363,0 -0.611496,-0.08582 -0.60735739,-0.221861 z M 3.912855,46.610275 c 0,-0.03138 -0.1311378,-0.442001 -0.2914216,-0.912399 l -0.2914216,-0.855288 -0.329664,0.868033 c -0.181315,0.477418 -0.3297287,0.888007 -0.3298081,0.912411 -7.93e-5,0.02442 0.2794087,0.04432 0.6210856,0.04432 0.3416758,0 0.6212297,-0.02564 0.6212297,-0.05714 z m 2.4849203,-0.564097 0,-2.928658 1.4287699,0 c 2.1545746,0 3.0085868,0.592908 3.0085868,2.088741 0,0.587133 -0.106981,0.874284 -0.455617,1.222916 l -0.4556191,0.455625 0.6331131,0.953528 c 0.348212,0.524456 0.633112,0.994707 0.633112,1.045018 0,0.0503 -0.312639,0.09144 -0.694752,0.09144 -0.6425644,0 -0.7357722,-0.06666 -1.240818,-0.88747 C 8.8124437,47.368812 8.6152445,47.199825 8.2187328,47.199739 7.7411434,47.19963 7.73051,47.221719 7.7904881,48.087209 l 0.061505,0.887579 -0.7271072,0 -0.7271097,0 0,-2.928646 z m 2.9819045,-0.30174 c 0.1171507,-0.117199 0.2129931,-0.380727 0.2129931,-0.585741 0,-0.558114 -0.3448792,-0.798727 -1.1448382,-0.798727 l -0.718852,0 0,0.798727 0,0.798727 0.718852,0 c 0.395369,0 0.814698,-0.09584 0.9318451,-0.212986 z m 2.1654302,0.30174 0,-2.928658 0.708063,0 0.708063,0 0.772482,1.537304 c 0.569636,1.133638 0.814737,1.471538 0.933393,1.286839 0.0885,-0.13777 0.453151,-0.809592 0.810331,-1.492939 0.603381,-1.154391 0.694627,-1.246368 1.287199,-1.297545 l 0.637782,-0.05506 0,2.939377 0,2.939365 -0.62123,0 -0.621231,0 -0.0088,-1.641819 -0.0088,-1.64182 -0.614947,1.198085 c -0.444658,0.866325 -0.711889,1.198085 -0.965037,1.198085 -0.253148,0 -0.520377,-0.33176 -0.965041,-1.198085 l -0.614948,-1.198085 -0.0088,1.64182 -0.0088,1.641819 -0.709978,0 -0.709977,0 0,-2.928646 z m 6.389796,2.775738 c 0,-0.09584 0.468539,-1.398631 1.041195,-2.895 1.004283,-2.62422 1.060103,-2.72257 1.574795,-2.774578 0.38225,-0.0387 0.569471,0.03687 0.660093,0.266239 0.53704,1.359185 2.048753,5.391411 2.048753,5.464685 0,0.0503 -0.280201,0.09156 -0.622678,0.09156 -0.561991,0 -0.650681,-0.06995 -0.910134,-0.718457 l -0.287471,-0.71847 -0.894186,0.05286 c -0.847248,0.05005 -0.905065,0.08546 -1.101432,0.674092 -0.180559,0.54123 -0.291059,0.628324 -0.85809,0.676315 -0.357967,0.03028 -0.650845,-0.02332 -0.650845,-0.119275 z m 3.123978,-2.590428 c -0.163026,-0.649542 -0.463402,-1.397861 -0.529559,-1.319276 -0.03195,0.03797 -0.184607,0.448386 -0.339256,0.912093 l -0.281178,0.843092 0.629693,0 c 0.580036,0 0.621073,-0.03443 0.5203,-0.435909 z m 3.443316,0.435909 0,-2.307427 -0.88747,0 -0.88747,0 0,-0.621219 0,-0.621231 2.396171,0 2.396173,0 0,0.621231 0,0.621219 -0.88747,0 -0.887473,0 0,2.307427 0,2.307427 -0.62123,0 -0.621231,0 0,-2.307427 z m 2.484921,2.215865 c 0,-0.07325 1.511696,-4.1055 2.048739,-5.464685 0.09062,-0.229357 0.277842,-0.304878 0.660093,-0.266239 0.514693,0.05201 0.570511,0.150358 1.574802,2.77459 0.572652,1.496357 1.041195,2.799104 1.041195,2.894988 0,0.09584 -0.292878,0.149551 -0.650851,0.119274 -0.567029,-0.04798 -0.67753,-0.135084 -0.858092,-0.676314 -0.196364,-0.588623 -0.254186,-0.624002 -1.10143,-0.674093 l -0.894173,-0.05286 -0.287485,0.71847 c -0.259453,0.648455 -0.348143,0.718458 -0.910133,0.718458 -0.342465,0 -0.622665,-0.04114 -0.622665,-0.09156 z m 3.044637,-3.087866 c -0.161406,-0.479591 -0.330435,-0.835352 -0.37559,-0.79056 -0.04517,0.0448 -0.217168,0.437191 -0.38221,0.872001 l -0.300093,0.79056 0.675685,0 0.6757,0 -0.293492,-0.872001 z m 4.410123,0.250782 0,-2.928658 1.952437,0 1.952437,0 0,0.621231 0,0.621219 -1.331206,0 -1.331208,0 0,0.621231 0,0.621231 1.064967,0 c 1.064964,0 1.064964,0 1.064964,0.532488 0,0.532477 0,0.532477 -1.064964,0.532477 l -1.064967,0 0,1.15372 0,1.153707 -0.62123,0 -0.62123,0 0,-2.928646 z m 4.437357,0 0,-2.928658 0.621231,0 0.621229,0 0,2.928658 0,2.928646 -0.621229,0 -0.621231,0 0,-2.928646 z m 2.129932,0 0,-2.928658 0.488109,1.35e-4 c 0.406335,1.46e-4 0.72311,0.297503 1.890883,1.77495 0.771516,0.976126 1.410497,1.774951 1.419954,1.775158 0.0095,1.47e-4 -0.0081,-0.798507 -0.03899,-1.774938 l -0.05616,-1.775305 0.721761,0 0.721779,0 0,2.928658 0,2.928646 -0.576858,-0.0073 c -0.51479,-0.0073 -0.720101,-0.190473 -1.908063,-1.706987 l -1.331207,-1.699369 -0.05081,1.706999 -0.05081,1.706975 -0.614799,0 -0.614797,0 0,-2.928646 z m 5.504396,2.706785 c 0.0013,-0.122083 0.462094,-1.419958 1.024327,-2.884281 0.992221,-2.58425 1.038256,-2.663994 1.567715,-2.715977 l 0.545491,-0.0536 0.987407,2.627224 c 0.543076,1.444972 1.043294,2.767008 1.111595,2.937838 0.105699,0.264358 0.01979,0.310616 -0.576671,0.310616 -0.663914,0 -0.712094,-0.03748 -0.913599,-0.709973 l -0.212708,-0.709973 -0.941005,0 -0.940989,0 -0.212722,0.709973 c -0.194889,0.650518 -0.264141,0.709973 -0.826812,0.709973 -0.374072,0 -0.613292,-0.08668 -0.612029,-0.221862 z m 3.192824,-2.142688 c 0,-0.03138 -0.131146,-0.442001 -0.291433,-0.912399 l -0.291416,-0.855288 -0.329671,0.868033 c -0.181315,0.477418 -0.329726,0.888007 -0.329798,0.912411 -8.5e-5,0.02442 0.279405,0.04432 0.621088,0.04432 0.34167,0 0.62123,-0.02564 0.62123,-0.05714 z m 2.48492,-0.564097 0,-2.928658 0.503828,0 c 0.420647,0 0.706372,0.25458 1.730569,1.542029 0.674707,0.848122 1.306614,1.648802 1.404236,1.779309 0.121167,0.161967 0.15966,-0.32739 0.121326,-1.542041 l -0.05616,-1.779297 0.721761,0 0.721776,0 0,2.928658 0,2.928646 -0.526844,0 c -0.451958,0 -0.719549,-0.239612 -1.88306,-1.686196 -0.74593,-0.927403 -1.367486,-1.686367 -1.38123,-1.686587 -0.01378,-1.47e-4 0,0.758562 0.03155,1.686196 l 0.05656,1.686587 -0.722161,0 -0.722145,0 0,-2.928646 z m 7.168738,2.590562 c -1.7962,-1.095278 -1.980679,-3.654965 -0.352914,-4.896524 1.163609,-0.88753 2.659247,-0.764593 3.651185,0.300141 0.46671,0.500943 0.458078,0.544599 -0.162031,0.819091 -0.466839,0.206637 -0.560882,0.192414 -0.887471,-0.13417 -0.780066,-0.780072 -2.115732,-0.274601 -2.410204,0.912106 -0.181639,0.732021 0.216629,1.7033 0.82809,2.019507 0.811206,0.419489 1.876994,0.01306 1.771449,-0.67546 -0.01099,-0.0713 0.259157,0.0037 0.600215,0.165996 0.723793,0.345153 0.76828,0.56174 0.220732,1.074659 -0.857269,0.803049 -2.31745,0.988822 -3.259051,0.414654 z m 4.190897,-2.590562 0,-2.928658 0.621229,0 0.62123,0 0,2.928658 0,2.928646 -0.62123,0 -0.621229,0 0,-2.928646 z m 1.78528,2.706785 c 0.0057,-0.122083 0.471779,-1.419958 1.035771,-2.884281 0.98789,-2.5649 1.045015,-2.664385 1.559733,-2.71599 l 0.534288,-0.05359 1.092342,2.843884 c 0.600798,1.564138 1.092356,2.886173 1.092356,2.937863 0,0.05164 -0.285978,0.094 -0.635515,0.094 -0.576614,0 -0.661357,-0.0658 -0.914393,-0.709973 -0.276948,-0.705041 -0.285482,-0.709973 -1.22819,-0.709973 -0.711823,0 -0.949281,0.06446 -0.949281,0.257888 0,0.141836 -0.0927,0.461326 -0.205992,0.709973 -0.160867,0.353088 -0.335792,0.452085 -0.798726,0.452085 -0.361377,0 -0.588699,-0.08656 -0.582393,-0.221861 z m 3.179902,-2.307427 c -0.0026,-0.122083 -0.143801,-0.531586 -0.313868,-0.910116 l -0.309223,-0.688242 -0.291033,0.910116 -0.291047,0.910103 0.604914,0 c 0.368079,0 0.603082,-0.0868 0.600257,-0.221861 z m 2.489577,-0.399358 0,-2.928658 0.709978,0 0.709976,0 0,2.307428 0,2.307415 1.419955,0 1.419953,0 0,0.62123 0,0.621231 -2.12993,0 -2.129932,0 0,-2.928646 z m 7.491438,2.632473 c -1.332826,-0.656879 -1.904712,-2.897856 -1.057269,-4.142979 0.539938,-0.793344 1.165412,-1.228874 1.946955,-1.355706 0.856985,-0.139065 1.411605,0.01428 2.077351,0.57451 0.656744,0.552595 0.686265,0.825524 0.121961,1.12752 -0.37085,0.198483 -0.471283,0.179938 -0.798723,-0.147488 -0.487798,-0.487807 -1.491436,-0.500076 -1.967448,-0.02405 -0.839988,0.839991 -0.65166,2.374243 0.357773,2.914716 0.60473,0.323776 0.653491,0.324691 1.286832,0.02417 0.806393,-0.382656 0.87235,-0.804416 0.125822,-0.804416 -0.449656,0 -0.532483,-0.06898 -0.532483,-0.443735 0,-0.424006 0.04733,-0.443734 1.064968,-0.443734 l 1.064965,0 0,1.5087 0,1.5087 -0.517702,0 c -0.28473,0 -0.54813,-0.09132 -0.585334,-0.202938 -0.05076,-0.152274 -0.162344,-0.152274 -0.44686,0 -0.533461,0.285503 -1.453663,0.245423 -2.140807,-0.09327 z m 4.578175,-2.632473 0,-2.928658 1.348743,0 c 1.557974,0 2.339091,0.294647 2.785792,1.050841 0.431171,0.729909 0.380292,1.492255 -0.140914,2.111679 -0.244062,0.290045 -0.443737,0.574522 -0.443737,0.632182 0,0.05762 0.239618,0.494265 0.532484,0.970229 0.292865,0.475965 0.532482,0.916464 0.532482,0.978885 0,0.06238 -0.299526,0.11195 -0.665604,0.109997 -0.608449,-0.0037 -0.710674,-0.07948 -1.190406,-0.887469 -0.429861,-0.724062 -0.614468,-0.883954 -1.020592,-0.883954 -0.47662,0 -0.495789,0.03431 -0.495789,0.88747 l 0,0.887469 -0.62123,0 -0.621229,0 0,-2.928646 z m 2.928654,-0.887481 0,-0.709973 -0.843097,-0.05408 -0.843098,-0.05408 0,0.818175 0,0.818175 0.843098,-0.05408 0.843097,-0.05408 0,-0.709985 z m 3.281827,3.41677 c -0.916723,-0.623929 -1.291405,-1.254804 -1.365981,-2.300066 -0.08452,-1.184289 0.441037,-2.174784 1.460152,-2.75198 1.250341,-0.708153 2.365658,-0.468651 3.422417,0.734952 0.930284,1.05952 0.932441,2.559149 0.0054,3.737713 -0.791368,1.00606 -2.485529,1.284763 -3.521955,0.579381 z m 2.442365,-1.311072 c 0.574583,-0.632048 0.556294,-1.876146 -0.03631,-2.468748 -0.571843,-0.571836 -1.493507,-0.58861 -1.995021,-0.03626 -0.827521,0.911325 -0.632233,2.461484 0.364388,2.892546 0.682673,0.29527 1.143645,0.188106 1.666943,-0.387491 z m 3.491297,1.375739 C 94.323979,48.09407 94.079963,47.333286 94.079963,45.087498 l 0,-1.969978 0.60595,0 0.605951,0 0.05965,2.035317 c 0.06694,2.284207 0.232531,2.638699 1.232562,2.638699 0.99928,0 1.223262,-0.501931 1.223262,-2.741249 l 0,-1.932767 0.621232,0 0.62123,0 -0.0013,2.085554 c 0,1.75532 -0.05554,2.175529 -0.347151,2.653801 -0.664794,1.09031 -2.355433,1.470549 -3.482523,0.783259 z m 4.89531,-2.593956 0,-2.928658 1.34001,0 c 1.54297,0 2.24872,0.282012 2.65059,1.059155 0.78156,1.511361 -0.27923,3.023211 -2.12122,3.023211 l -0.62693,0 0,0.887469 0,0.887469 -0.62123,0 -0.62122,0 0,-2.928646 z m 2.90096,-0.474328 c 0.13165,-0.210117 0.12508,-0.430501 -0.0225,-0.75435 -0.17371,-0.381289 -0.32738,-0.45753 -0.92223,-0.45753 l -0.71378,0 0,0.808933 0,0.808933 0.73627,-0.05457 c 0.44924,-0.03333 0.80876,-0.170293 0.92224,-0.351403 z M 17.934906,33.237806 c 0,-0.784383 -0.07547,-0.653241 4.886439,-8.490949 2.163086,-3.41677 4.638423,-7.330514 5.500732,-8.69722 0.862324,-1.366705 1.902952,-3.004093 2.312509,-3.638631 0.409543,-0.634538 1.880802,-2.9508401 3.269431,-5.1473306 1.388645,-2.1964905 2.81655,-4.4521912 3.173143,-5.0126615 l 0.648365,-1.0190378 3.505512,-0.00122 3.505514,-0.00122 0,16.3294749 0,16.329474 -4.669224,0 -4.669206,0 0.822494,-6.079177 c 0.452371,-3.343557 0.805639,-6.103142 0.785051,-6.132418 -0.02058,-0.0293 -0.426142,-8.91e-4 -0.901245,0.06287 l -0.863814,0.116101 -3.098369,6.016329 -3.098369,6.016341 -5.554479,0 -5.554484,0 0,-0.650006 z M 36.211427,19.377653 c 1.128893,-2.237584 1.144043,-2.287015 1.345564,-4.392981 0.112097,-1.171459 0.181728,-2.157388 0.154732,-2.190961 -0.03874,-0.0481 -5.284501,7.724623 -5.821018,8.62513 -0.101939,0.171087 0.246747,0.221862 1.523386,0.221862 l 1.655596,0 1.14174,-2.26305 z m 9.412594,-1.819316 0,-16.3294741 9.407197,0 9.407198,0 0,3.5473985 0,3.5473862 -5.635444,0.04688 -5.635444,0.04688 -0.0483,3.3280164 -0.0483,3.328027 5.567387,0 5.567398,0 0.110815,2.699716 c 0.08338,2.031056 0.05723,2.733778 -0.105516,2.837194 -0.118994,0.07557 -2.672427,0.138686 -5.674296,0.140188 l -5.457949,0.0024 0,6.567289 0,6.567289 -3.727379,0 -3.727381,0 0,-16.329474 z m 19.346878,0 0,-16.3294741 11.093391,0 11.093395,0 0,5.4135816 0,5.4135695 -3.283646,0 -3.283645,0 0,-1.91896 c 0,-2.8073928 0.172271,-2.6958824 -4.16515,-2.6958824 l -3.441345,0 -0.367867,0.4676629 c -0.36179,0.4599472 -0.367868,0.6251497 -0.367868,10.0009185 0,9.466329 0.0026,9.535624 0.373618,9.871376 0.340236,0.307905 0.679633,0.338121 3.797499,0.338121 3.117863,0 3.457262,-0.03028 3.797482,-0.338121 0.270629,-0.244923 0.373631,-0.550728 0.373631,-1.109343 l 0,-0.771209 -3.017401,0 -3.017403,0 0,-2.307427 0,-2.307428 6.301048,0 6.301047,0 0,6.301039 0,6.301051 -11.093395,0 -11.093391,0 0,-16.329475 z"
     id="path3359"
     inkscape:connector-curvature="0" />
</svg>
